<svg width="4" height="19" viewBox="0 0 4 19" fill="none" xmlns="http://www.w3.org/2000/svg">
<path d="M2 14.7712C2.53043 14.7712 3.03914 14.9936 3.41421 15.3893C3.78929 15.785 4 16.3218 4 16.8814C4 17.4411 3.78929 17.9778 3.41421 18.3735C3.03914 18.7693 2.53043 18.9916 2 18.9916C1.46957 18.9916 0.96086 18.7693 0.585787 18.3735C0.210714 17.9778 0 17.4411 0 16.8814C0 16.3218 0.210714 15.785 0.585787 15.3893C0.96086 14.9936 1.46957 14.7712 2 14.7712ZM2 7.38562C2.53043 7.38562 3.03914 7.60794 3.41421 8.00368C3.78929 8.39941 4 8.93614 4 9.4958C4 10.0555 3.78929 10.5922 3.41421 10.9879C3.03914 11.3837 2.53043 11.606 2 11.606C1.46957 11.606 0.96086 11.3837 0.585787 10.9879C0.210714 10.5922 0 10.0555 0 9.4958C0 8.93614 0.210714 8.39941 0.585787 8.00368C0.96086 7.60794 1.46957 7.38562 2 7.38562ZM2 0C2.53043 0 3.03914 0.222322 3.41421 0.618057C3.78929 1.01379 4 1.55052 4 2.11018C4 2.66983 3.78929 3.20656 3.41421 3.6023C3.03914 3.99803 2.53043 4.22035 2 4.22035C1.46957 4.22035 0.96086 3.99803 0.585787 3.6023C0.210714 3.20656 0 2.66983 0 2.11018C0 1.55052 0.210714 1.01379 0.585787 0.618057C0.96086 0.222322 1.46957 0 2 0Z" fill="#2CC7E1"/>
</svg>
